<svg width="1429" height="991" xmlns="http://www.w3.org/2000/svg" xmlns:xlink="http://www.w3.org/1999/xlink" xml:space="preserve" overflow="hidden"><defs><clipPath id="clip0"><rect x="273" y="1355" width="1429" height="991"/></clipPath></defs><g clip-path="url(#clip0)" transform="translate(-273 -1355)"><rect x="274" y="1356" width="1426" height="988" fill="#FFFFFF"/><g><path d="M0 0 0.000360892 538" stroke="#BFBFBF" stroke-width="3.4375" stroke-linejoin="round" stroke-miterlimit="10" fill="none" fill-rule="evenodd" transform="matrix(1 0 0 -1 480.5 2141.5)"/></g><g><path d="M480.5 2141.5 1629.5 2141.5" stroke="#BFBFBF" stroke-width="3.4375" stroke-linejoin="round" stroke-miterlimit="10" fill="none" fill-rule="evenodd"/></g><g><path d="M611.5 1635.5 743.525 1774.56 1005.53 1917.56 1530.5 2004.5" stroke="#A02B93" stroke-width="6.875" stroke-linecap="round" stroke-linejoin="round" stroke-miterlimit="10" fill="none"/></g><g><path d="M622.354 1635.02C622.354 1641.1 617.429 1646.02 611.354 1646.02 605.279 1646.02 600.354 1641.1 600.354 1635.02 600.354 1628.95 605.279 1624.02 611.354 1624.02 617.429 1624.02 622.354 1628.95 622.354 1635.02Z" stroke="#A02B93" stroke-width="3.4375" stroke-linejoin="round" stroke-miterlimit="10" fill="#A02B93"/><path d="M754.354 1774.02C754.354 1780.1 749.429 1785.02 743.354 1785.02 737.279 1785.02 732.354 1780.1 732.354 1774.02 732.354 1767.95 737.279 1763.02 743.354 1763.02 749.429 1763.02 754.354 1767.95 754.354 1774.02Z" stroke="#A02B93" stroke-width="3.4375" stroke-linejoin="round" stroke-miterlimit="10" fill="#A02B93"/><path d="M1016.35 1917.02C1016.35 1923.1 1011.43 1928.02 1005.35 1928.02 999.279 1928.02 994.354 1923.1 994.354 1917.02 994.354 1910.95 999.279 1906.02 1005.35 1906.02 1011.43 1906.02 1016.35 1910.95 1016.35 1917.02Z" stroke="#A02B93" stroke-width="3.4375" stroke-linejoin="round" stroke-miterlimit="10" fill="#A02B93"/><path d="M1541.35 2004.02C1541.35 2010.1 1536.43 2015.02 1530.35 2015.02 1524.28 2015.02 1519.35 2010.1 1519.35 2004.02 1519.35 1997.95 1524.28 1993.02 1530.35 1993.02 1536.43 1993.02 1541.35 1997.95 1541.35 2004.02Z" stroke="#A02B93" stroke-width="3.4375" stroke-linejoin="round" stroke-miterlimit="10" fill="#A02B93"/></g><g><text fill="#595959" font-family="Aptos Narrow,Aptos Narrow_MSFontService,sans-serif" font-weight="400" font-stretch="semi-condensed" font-size="41" transform="matrix(1 0 0 1 421.736 2153)">0</text></g><g><text fill="#595959" font-family="Aptos Narrow,Aptos Narrow_MSFontService,sans-serif" font-weight="400" font-stretch="semi-condensed" font-size="41" transform="matrix(1 0 0 1 400.836 2076)">10</text></g><g><text fill="#595959" font-family="Aptos Narrow,Aptos Narrow_MSFontService,sans-serif" font-weight="400" font-stretch="semi-condensed" font-size="41" transform="matrix(1 0 0 1 400.836 1999)">20</text></g><g><text fill="#595959" font-family="Aptos Narrow,Aptos Narrow_MSFontService,sans-serif" font-weight="400" font-stretch="semi-condensed" font-size="41" transform="matrix(1 0 0 1 400.836 1922)">30</text></g><g><text fill="#595959" font-family="Aptos Narrow,Aptos Narrow_MSFontService,sans-serif" font-weight="400" font-stretch="semi-condensed" font-size="41" transform="matrix(1 0 0 1 400.836 1846)">40</text></g><g><text fill="#595959" font-family="Aptos Narrow,Aptos Narrow_MSFontService,sans-serif" font-weight="400" font-stretch="semi-condensed" font-size="41" transform="matrix(1 0 0 1 400.836 1769)">50</text></g><g><text fill="#595959" font-family="Aptos Narrow,Aptos Narrow_MSFontService,sans-serif" font-weight="400" font-stretch="semi-condensed" font-size="41" transform="matrix(1 0 0 1 400.836 1692)">60</text></g><g><text fill="#595959" font-family="Aptos Narrow,Aptos Narrow_MSFontService,sans-serif" font-weight="400" font-stretch="semi-condensed" font-size="41" transform="matrix(1 0 0 1 400.836 1615)">70</text></g><g><text fill="#595959" font-family="Aptos Narrow,Aptos Narrow_MSFontService,sans-serif" font-weight="400" font-stretch="semi-condensed" font-size="41" transform="matrix(1 0 0 1 470.269 2206)">0</text></g><g><text fill="#595959" font-family="Aptos Narrow,Aptos Narrow_MSFontService,sans-serif" font-weight="400" font-stretch="semi-condensed" font-size="41" transform="matrix(1 0 0 1 623.874 2206)">10</text></g><g><text fill="#595959" font-family="Aptos Narrow,Aptos Narrow_MSFontService,sans-serif" font-weight="400" font-stretch="semi-condensed" font-size="41" transform="matrix(1 0 0 1 787.928 2206)">20</text></g><g><text fill="#595959" font-family="Aptos Narrow,Aptos Narrow_MSFontService,sans-serif" font-weight="400" font-stretch="semi-condensed" font-size="41" transform="matrix(1 0 0 1 951.982 2206)">30</text></g><g><text fill="#595959" font-family="Aptos Narrow,Aptos Narrow_MSFontService,sans-serif" font-weight="400" font-stretch="semi-condensed" font-size="41" transform="matrix(1 0 0 1 1116.04 2206)">40</text></g><g><text fill="#595959" font-family="Aptos Narrow,Aptos Narrow_MSFontService,sans-serif" font-weight="400" font-stretch="semi-condensed" font-size="41" transform="matrix(1 0 0 1 1280.09 2206)">50</text></g><g><text fill="#595959" font-family="Aptos Narrow,Aptos Narrow_MSFontService,sans-serif" font-weight="400" font-stretch="semi-condensed" font-size="41" transform="matrix(1 0 0 1 1444.15 2206)">60</text></g><g><text fill="#595959" font-family="Aptos Narrow,Aptos Narrow_MSFontService,sans-serif" font-weight="400" font-stretch="semi-condensed" font-size="41" transform="matrix(1 0 0 1 1608.2 2206)">70</text></g><g><text fill="#595959" font-family="Aptos Narrow,Aptos Narrow_MSFontService,sans-serif" font-weight="400" font-stretch="semi-condensed" font-size="46" transform="matrix(6.12323e-17 -1 1 6.12323e-17 374.137 2012)">Time (seconds)</text></g><g><text fill="#595959" font-family="Aptos Narrow,Aptos Narrow_MSFontService,sans-serif" font-weight="400" font-stretch="semi-condensed" font-size="46" transform="matrix(1 0 0 1 859.488 2274)">Number of Processes</text></g><g><text fill="#595959" font-family="Aptos Narrow,Aptos Narrow_MSFontService,sans-serif" font-weight="400" font-stretch="semi-condensed" font-size="64" transform="matrix(1 0 0 1 621.443 1450)">Parallel Execution Time Scaling for </text></g><g><text fill="#595959" font-family="Aptos Narrow,Aptos Narrow_MSFontService,sans-serif" font-weight="400" font-stretch="semi-condensed" font-size="64" transform="matrix(1 0 0 1 797.603 1529)">Julia Set  Generation</text></g><rect x="274.5" y="1356.5" width="1426" height="988" stroke="#D9D9D9" stroke-width="3.4375" stroke-linejoin="round" stroke-miterlimit="10" fill="none"/></g></svg>