<svg width="1431" height="992" xmlns="http://www.w3.org/2000/svg" xmlns:xlink="http://www.w3.org/1999/xlink" xml:space="preserve" overflow="hidden"><defs><clipPath id="clip0"><rect x="245" y="1344" width="1431" height="992"/></clipPath></defs><g clip-path="url(#clip0)" transform="translate(-245 -1344)"><rect x="246" y="1345" width="1428" height="989" fill="#FFFFFF"/><g><path d="M0 0 0.000360892 537" stroke="#BFBFBF" stroke-width="3.4375" stroke-linejoin="round" stroke-miterlimit="10" fill="none" fill-rule="evenodd" transform="matrix(1 0 0 -1 453.5 2130.5)"/></g><g><path d="M453.5 2130.5 1602.5 2130.5" stroke="#BFBFBF" stroke-width="3.4375" stroke-linejoin="round" stroke-miterlimit="10" fill="none" fill-rule="evenodd"/></g><g><path d="M584.5 1660.5 715.524 1816.56 978.532 1940.56 1504.5 2010.5" stroke="#A02B93" stroke-width="6.875" stroke-linecap="round" stroke-linejoin="round" stroke-miterlimit="10" fill="none"/></g><g><path d="M595.853 1660.71C595.853 1666.78 590.928 1671.71 584.854 1671.71 578.779 1671.71 573.854 1666.78 573.854 1660.71 573.854 1654.63 578.779 1649.71 584.854 1649.71 590.928 1649.71 595.853 1654.63 595.853 1660.71Z" stroke="#A02B93" stroke-width="3.4375" stroke-linejoin="round" stroke-miterlimit="10" fill="#A02B93"/><path d="M726.854 1816.71C726.854 1822.78 721.929 1827.71 715.854 1827.71 709.779 1827.71 704.854 1822.78 704.854 1816.71 704.854 1810.63 709.779 1805.71 715.854 1805.71 721.929 1805.71 726.854 1810.63 726.854 1816.71Z" stroke="#A02B93" stroke-width="3.4375" stroke-linejoin="round" stroke-miterlimit="10" fill="#A02B93"/><path d="M989.853 1940.71C989.853 1946.78 984.929 1951.71 978.854 1951.71 972.779 1951.71 967.854 1946.78 967.854 1940.71 967.854 1934.63 972.779 1929.71 978.854 1929.71 984.929 1929.71 989.853 1934.63 989.853 1940.71Z" stroke="#A02B93" stroke-width="3.4375" stroke-linejoin="round" stroke-miterlimit="10" fill="#A02B93"/><path d="M1515.85 2010.71C1515.85 2016.78 1510.93 2021.71 1504.85 2021.71 1498.78 2021.71 1493.85 2016.78 1493.85 2010.71 1493.85 2004.63 1498.78 1999.71 1504.85 1999.71 1510.93 1999.71 1515.85 2004.63 1515.85 2010.71Z" stroke="#A02B93" stroke-width="3.4375" stroke-linejoin="round" stroke-miterlimit="10" fill="#A02B93"/></g><g><text fill="#595959" font-family="Aptos Narrow,Aptos Narrow_MSFontService,sans-serif" font-weight="400" font-stretch="semi-condensed" font-size="41" transform="matrix(1 0 0 1 394.236 2142)">0</text></g><g><text fill="#595959" font-family="Aptos Narrow,Aptos Narrow_MSFontService,sans-serif" font-weight="400" font-stretch="semi-condensed" font-size="41" transform="matrix(1 0 0 1 373.336 2066)">10</text></g><g><text fill="#595959" font-family="Aptos Narrow,Aptos Narrow_MSFontService,sans-serif" font-weight="400" font-stretch="semi-condensed" font-size="41" transform="matrix(1 0 0 1 373.336 1989)">20</text></g><g><text fill="#595959" font-family="Aptos Narrow,Aptos Narrow_MSFontService,sans-serif" font-weight="400" font-stretch="semi-condensed" font-size="41" transform="matrix(1 0 0 1 373.336 1912)">30</text></g><g><text fill="#595959" font-family="Aptos Narrow,Aptos Narrow_MSFontService,sans-serif" font-weight="400" font-stretch="semi-condensed" font-size="41" transform="matrix(1 0 0 1 373.336 1835)">40</text></g><g><text fill="#595959" font-family="Aptos Narrow,Aptos Narrow_MSFontService,sans-serif" font-weight="400" font-stretch="semi-condensed" font-size="41" transform="matrix(1 0 0 1 373.336 1759)">50</text></g><g><text fill="#595959" font-family="Aptos Narrow,Aptos Narrow_MSFontService,sans-serif" font-weight="400" font-stretch="semi-condensed" font-size="41" transform="matrix(1 0 0 1 373.336 1682)">60</text></g><g><text fill="#595959" font-family="Aptos Narrow,Aptos Narrow_MSFontService,sans-serif" font-weight="400" font-stretch="semi-condensed" font-size="41" transform="matrix(1 0 0 1 373.336 1605)">70</text></g><g><text fill="#595959" font-family="Aptos Narrow,Aptos Narrow_MSFontService,sans-serif" font-weight="400" font-stretch="semi-condensed" font-size="41" transform="matrix(1 0 0 1 442.769 2196)">0</text></g><g><text fill="#595959" font-family="Aptos Narrow,Aptos Narrow_MSFontService,sans-serif" font-weight="400" font-stretch="semi-condensed" font-size="41" transform="matrix(1 0 0 1 596.537 2196)">10</text></g><g><text fill="#595959" font-family="Aptos Narrow,Aptos Narrow_MSFontService,sans-serif" font-weight="400" font-stretch="semi-condensed" font-size="41" transform="matrix(1 0 0 1 760.755 2196)">20</text></g><g><text fill="#595959" font-family="Aptos Narrow,Aptos Narrow_MSFontService,sans-serif" font-weight="400" font-stretch="semi-condensed" font-size="41" transform="matrix(1 0 0 1 924.973 2196)">30</text></g><g><text fill="#595959" font-family="Aptos Narrow,Aptos Narrow_MSFontService,sans-serif" font-weight="400" font-stretch="semi-condensed" font-size="41" transform="matrix(1 0 0 1 1089.19 2196)">40</text></g><g><text fill="#595959" font-family="Aptos Narrow,Aptos Narrow_MSFontService,sans-serif" font-weight="400" font-stretch="semi-condensed" font-size="41" transform="matrix(1 0 0 1 1253.41 2196)">50</text></g><g><text fill="#595959" font-family="Aptos Narrow,Aptos Narrow_MSFontService,sans-serif" font-weight="400" font-stretch="semi-condensed" font-size="41" transform="matrix(1 0 0 1 1417.63 2196)">60</text></g><g><text fill="#595959" font-family="Aptos Narrow,Aptos Narrow_MSFontService,sans-serif" font-weight="400" font-stretch="semi-condensed" font-size="41" transform="matrix(1 0 0 1 1581.85 2196)">70</text></g><g><text fill="#595959" font-family="Aptos Narrow,Aptos Narrow_MSFontService,sans-serif" font-weight="400" font-stretch="semi-condensed" font-size="46" transform="matrix(6.12323e-17 -1 1 6.12323e-17 346.637 2002)">Time (seconds)</text></g><g><text fill="#595959" font-family="Aptos Narrow,Aptos Narrow_MSFontService,sans-serif" font-weight="400" font-stretch="semi-condensed" font-size="46" transform="matrix(1 0 0 1 832.56 2264)">Number of Processes</text></g><g><text fill="#595959" font-family="Aptos Narrow,Aptos Narrow_MSFontService,sans-serif" font-weight="400" font-stretch="semi-condensed" font-size="64" transform="matrix(1 0 0 1 594.211 1440)">Parallel Execution Time Scaling for </text></g><g><text fill="#595959" font-family="Aptos Narrow,Aptos Narrow_MSFontService,sans-serif" font-weight="400" font-stretch="semi-condensed" font-size="64" transform="matrix(1 0 0 1 686.519 1519)">Mandelbrot Set Generation</text></g><rect x="246.5" y="1345.5" width="1428" height="989" stroke="#D9D9D9" stroke-width="3.4375" stroke-linejoin="round" stroke-miterlimit="10" fill="none"/></g></svg>